G04 Layer_Color=8421504*
%FSLAX24Y24*%
%MOIN*%
G70*
G01*
G75*
%ADD10R,0.0413X0.0236*%
%ADD11R,0.0315X0.0157*%
%ADD12R,0.0276X0.0276*%
%ADD13R,0.0197X0.0236*%
%ADD14R,0.0315X0.0098*%
%ADD15R,0.0256X0.0128*%
%ADD16O,0.0492X0.0236*%
%ADD17R,0.0354X0.0472*%
%ADD18R,0.0472X0.0354*%
%ADD19R,0.1968X0.1968*%
%ADD20R,0.1417X0.0709*%
%ADD21R,0.1181X0.0394*%
%ADD22R,0.0232X0.0244*%
%ADD23R,0.1063X0.0315*%
%ADD24R,0.0295X0.0551*%
%ADD25R,0.0300X0.0300*%
%ADD26R,0.0217X0.0217*%
%ADD27R,0.0213X0.0252*%
%ADD28R,0.0217X0.0217*%
%ADD29R,0.0252X0.0213*%
%ADD30R,0.0236X0.0197*%
%ADD31R,0.0300X0.0300*%
D10*
X4782Y4024D02*
D03*
Y3276D02*
D03*
X3738D02*
D03*
Y3650D02*
D03*
Y4024D02*
D03*
D11*
X5123Y1406D02*
D03*
Y1150D02*
D03*
Y894D02*
D03*
X4277D02*
D03*
Y1150D02*
D03*
Y1406D02*
D03*
D12*
X4961Y-370D02*
D03*
X4061Y-740D02*
D03*
Y10D02*
D03*
Y-1190D02*
D03*
Y-1940D02*
D03*
X4961Y-1570D02*
D03*
D13*
X3834Y444D02*
D03*
X3440D02*
D03*
X3590Y-2880D02*
D03*
X3196D02*
D03*
X2915Y-4184D02*
D03*
X2522D02*
D03*
X3834Y1400D02*
D03*
X3440D02*
D03*
D14*
X6333Y-2855D02*
D03*
Y-3052D02*
D03*
Y-3248D02*
D03*
Y-3445D02*
D03*
X7467Y-2855D02*
D03*
Y-3052D02*
D03*
Y-3248D02*
D03*
Y-3445D02*
D03*
D15*
X2600Y3978D02*
D03*
Y3722D02*
D03*
D16*
X7873Y-253D02*
D03*
Y247D02*
D03*
Y747D02*
D03*
Y1247D02*
D03*
X5727Y-253D02*
D03*
Y247D02*
D03*
Y747D02*
D03*
Y1247D02*
D03*
D17*
X15546Y3346D02*
D03*
X15046D02*
D03*
X14546D02*
D03*
X14046D02*
D03*
X13546D02*
D03*
X13046D02*
D03*
X12546D02*
D03*
X12046D02*
D03*
X11546D02*
D03*
X11046D02*
D03*
X10546D02*
D03*
X10046D02*
D03*
X9546D02*
D03*
X9046D02*
D03*
Y-3346D02*
D03*
X9546D02*
D03*
X10046D02*
D03*
X10546D02*
D03*
X11046D02*
D03*
X11546D02*
D03*
X12046D02*
D03*
X12546D02*
D03*
X13046D02*
D03*
X13546D02*
D03*
X14046D02*
D03*
X14546D02*
D03*
X15046D02*
D03*
X15546D02*
D03*
D18*
X8653Y2250D02*
D03*
Y1750D02*
D03*
Y1250D02*
D03*
Y750D02*
D03*
Y250D02*
D03*
Y-250D02*
D03*
Y-750D02*
D03*
Y-1250D02*
D03*
Y-1750D02*
D03*
Y-2250D02*
D03*
D19*
X12515Y591D02*
D03*
D20*
X766Y2894D02*
D03*
Y-2894D02*
D03*
D21*
X2616Y1969D02*
D03*
Y1181D02*
D03*
Y394D02*
D03*
Y-394D02*
D03*
Y-1181D02*
D03*
Y-1968D02*
D03*
D22*
X3471Y1100D02*
D03*
X3829D02*
D03*
X3461Y750D02*
D03*
X3819D02*
D03*
D23*
X5630Y3254D02*
D03*
Y4120D02*
D03*
D24*
X11509Y4160D02*
D03*
X12080D02*
D03*
D25*
X6450Y3250D02*
D03*
Y3800D02*
D03*
X3280Y4050D02*
D03*
Y3500D02*
D03*
D26*
X7777Y-2200D02*
D03*
X7423D02*
D03*
X5873Y1670D02*
D03*
X6227D02*
D03*
X7773Y3050D02*
D03*
X8127D02*
D03*
X7773Y3410D02*
D03*
X8127D02*
D03*
X5993Y2860D02*
D03*
X6347D02*
D03*
X4477Y2880D02*
D03*
X4123D02*
D03*
X5157Y2870D02*
D03*
X4803D02*
D03*
X11577Y-3950D02*
D03*
X11223D02*
D03*
X7423Y-1850D02*
D03*
X7777D02*
D03*
X7423Y-1500D02*
D03*
X7777D02*
D03*
X5089Y480D02*
D03*
X4734D02*
D03*
X4373Y1800D02*
D03*
X4727D02*
D03*
X12973Y3979D02*
D03*
X13327D02*
D03*
D27*
X11120Y4341D02*
D03*
Y3979D02*
D03*
X7960Y2029D02*
D03*
Y2391D02*
D03*
X5513Y2488D02*
D03*
Y2850D02*
D03*
X3760Y1999D02*
D03*
Y2361D02*
D03*
X2930Y3669D02*
D03*
Y4031D02*
D03*
X12470Y4341D02*
D03*
Y3979D02*
D03*
D28*
X3500Y-1197D02*
D03*
Y-843D02*
D03*
Y7D02*
D03*
Y-347D02*
D03*
X4510Y-2887D02*
D03*
Y-2533D02*
D03*
X4230Y-2887D02*
D03*
Y-2533D02*
D03*
X7640Y2387D02*
D03*
Y2033D02*
D03*
X3449Y2351D02*
D03*
Y1996D02*
D03*
X3930Y-2887D02*
D03*
Y-2533D02*
D03*
X2900Y-3338D02*
D03*
Y-3693D02*
D03*
X7858Y-3229D02*
D03*
Y-2874D02*
D03*
X8131Y-3229D02*
D03*
Y-2874D02*
D03*
D29*
X8031Y1710D02*
D03*
X7669D02*
D03*
X4799Y2540D02*
D03*
X5161D02*
D03*
X2539Y-4515D02*
D03*
X2901D02*
D03*
X7781Y-2550D02*
D03*
X7419D02*
D03*
X15431Y3850D02*
D03*
X15069D02*
D03*
D30*
X5270Y-2466D02*
D03*
Y-2860D02*
D03*
X4810Y-2870D02*
D03*
Y-2476D02*
D03*
X5600Y-2466D02*
D03*
Y-2860D02*
D03*
X2500Y-3732D02*
D03*
Y-3338D02*
D03*
D31*
X15050Y4220D02*
D03*
X15600D02*
D03*
M02*
