M48
;Layer_Color=9474304
;FILE_FORMAT=2:4
INCH
;TYPE=PLATED
T1F00S00C0.0100
T2F00S00C0.0250
T3F00S00C0.0276
T4F00S00C0.0300
T5F00S00C0.0800
;TYPE=NON_PLATED
T6F00S00C0.0315
T8F00S00C0.0800
%
T01
X007455Y-004600
X007200Y-002550
X008050
X009046Y-002855
X009840Y-002900
X010300Y-002800
X010550Y-002500
X010650Y-003860
X010950Y-004800
X011650
X012350
X012280Y-003740
X013050
X013550
X014050
X014546
X015050
X015323Y-003881
Y-004303
X014450Y-004800
X013600Y-004350
X013750Y-004150
X015500Y-002922
Y-002500
Y-002000
Y-001500
Y-001000
Y-000500
Y000000
Y000500
Y001000
X007367
X007050Y000750
X006640Y000200
X007500Y000240
X006750Y-000800
X007150Y-001670
X009250Y-004050
X009640Y-004100
X010250Y-004800
X006373Y-003673
X005040Y-002500
X004750Y-002230
X004373Y-001770
X003930Y-002280
X003400Y-002150
Y-001800
X001800Y-001850
Y-002100
X001150Y-002900
X000750Y-002890
X000350
X001223Y-003603
X002150Y-003750
Y-004200
X003323Y-004553
X004118Y000400
X004100Y000650
X005080Y000700
X004743Y000247
Y000047
X005450Y-000550
X005780Y-000568
X006300Y-000800
X006030Y-001470
X005650Y001500
X005050Y001600
X005100Y002250
X004750
X004280Y001600
X003850Y001700
X003810Y002876
X004123Y003247
X004050Y003650
X004250
X004450
X004223Y004077
X003360Y003206
X002900Y003330
X002669Y003470
X002350Y003700
Y004100
X002150
X001950
X001550Y004250
X002500Y004750
X003150Y002355
X001920Y001955
X001620Y001958
X001743Y001447
X001023Y001901
X001123Y002894
X000750
X000360
X005800Y002350
X005995Y003600
X006470Y004200
X006800
Y003250
X007000
X007490Y003200
X007500Y002950
X008350Y002650
X008250Y002250
X009050
X009046Y002950
X009550
X009800Y003720
X009210Y004360
X010670Y004360
X012750Y004360
X013310Y004220
X014100Y004570
X014250Y004430
X014750Y003860
X015750Y003851
X015600Y004536
X015500Y002928
Y002500
Y002000
Y001500
X014500Y003000
X012550Y002876
X008410Y003540
X007350Y001347
X006700Y001951
T02
X007100Y-005000
X007800
X008500
X009200
X009900
X010600
X011300
X012000
X012700
X013400
X014100
X014800
X006400
X005700
X005000
Y005000
X005700
X006400
X007100
X007800
X008500
X009200
X009900
X010600
X011300
X012000
X012700
X013400
X014100
X014800
T03
X003450Y-004030
X003950
X004450
X004950
X005450
Y-003530
X004950
X004450
X003950
X003450
T04
X011860Y-000070
X012510Y000550
X013160Y-000070
Y001230
X011860
T05
X000750Y-004250
Y004250
T06
X002104Y-002835
T08
X017700Y-004250
Y004250
M30
