G04 Layer_Color=8388736*
%FSLAX24Y24*%
%MOIN*%
G70*
G01*
G75*
%ADD47C,0.0315*%
%ADD59R,0.0493X0.0316*%
%ADD60R,0.0395X0.0237*%
%ADD61R,0.0356X0.0356*%
%ADD62R,0.0277X0.0316*%
%ADD63R,0.0395X0.0178*%
%ADD64R,0.0336X0.0208*%
%ADD65O,0.0572X0.0316*%
%ADD66R,0.0434X0.0552*%
%ADD67R,0.0552X0.0434*%
%ADD68R,0.2049X0.2049*%
%ADD69R,0.1497X0.0789*%
%ADD70R,0.1261X0.0474*%
%ADD71R,0.0312X0.0324*%
%ADD72R,0.1143X0.0395*%
%ADD73R,0.0375X0.0631*%
%ADD74R,0.0380X0.0380*%
%ADD75R,0.0297X0.0297*%
%ADD76R,0.0293X0.0332*%
%ADD77R,0.0297X0.0297*%
%ADD78R,0.0332X0.0293*%
%ADD79R,0.0316X0.0277*%
%ADD80R,0.0380X0.0380*%
%ADD81C,0.0474*%
%ADD82C,0.1080*%
%ADD83C,0.0013*%
%ADD84C,0.0480*%
D47*
X2104Y2835D02*
D03*
Y-2835D02*
D03*
D59*
X4782Y4024D02*
D03*
Y3276D02*
D03*
X3738D02*
D03*
Y3650D02*
D03*
Y4024D02*
D03*
D60*
X5123Y1406D02*
D03*
Y1150D02*
D03*
Y894D02*
D03*
X4277D02*
D03*
Y1150D02*
D03*
Y1406D02*
D03*
D61*
X4961Y-370D02*
D03*
X4061Y-740D02*
D03*
Y10D02*
D03*
Y-1190D02*
D03*
Y-1940D02*
D03*
X4961Y-1570D02*
D03*
D62*
X3834Y444D02*
D03*
X3440D02*
D03*
X3590Y-2880D02*
D03*
X3196D02*
D03*
X2915Y-4184D02*
D03*
X2522D02*
D03*
X3834Y1400D02*
D03*
X3440D02*
D03*
D63*
X6333Y-2855D02*
D03*
Y-3052D02*
D03*
Y-3248D02*
D03*
Y-3445D02*
D03*
X7467Y-2855D02*
D03*
Y-3052D02*
D03*
Y-3248D02*
D03*
Y-3445D02*
D03*
D64*
X2600Y3978D02*
D03*
Y3722D02*
D03*
D65*
X7873Y-253D02*
D03*
Y247D02*
D03*
Y747D02*
D03*
Y1247D02*
D03*
X5727Y-253D02*
D03*
Y247D02*
D03*
Y747D02*
D03*
Y1247D02*
D03*
D66*
X15546Y3346D02*
D03*
X15046D02*
D03*
X14546D02*
D03*
X14046D02*
D03*
X13546D02*
D03*
X13046D02*
D03*
X12546D02*
D03*
X12046D02*
D03*
X11546D02*
D03*
X11046D02*
D03*
X10546D02*
D03*
X10046D02*
D03*
X9546D02*
D03*
X9046D02*
D03*
Y-3346D02*
D03*
X9546D02*
D03*
X10046D02*
D03*
X10546D02*
D03*
X11046D02*
D03*
X11546D02*
D03*
X12046D02*
D03*
X12546D02*
D03*
X13046D02*
D03*
X13546D02*
D03*
X14046D02*
D03*
X14546D02*
D03*
X15046D02*
D03*
X15546D02*
D03*
D67*
X8653Y2250D02*
D03*
Y1750D02*
D03*
Y1250D02*
D03*
Y750D02*
D03*
Y250D02*
D03*
Y-250D02*
D03*
Y-750D02*
D03*
Y-1250D02*
D03*
Y-1750D02*
D03*
Y-2250D02*
D03*
D68*
X12515Y591D02*
D03*
D69*
X766Y2894D02*
D03*
Y-2894D02*
D03*
D70*
X2616Y1969D02*
D03*
Y1181D02*
D03*
Y394D02*
D03*
Y-394D02*
D03*
Y-1181D02*
D03*
Y-1968D02*
D03*
D71*
X3471Y1100D02*
D03*
X3829D02*
D03*
X3461Y750D02*
D03*
X3819D02*
D03*
D72*
X5630Y3254D02*
D03*
Y4120D02*
D03*
D73*
X11509Y4160D02*
D03*
X12080D02*
D03*
D74*
X6450Y3250D02*
D03*
Y3800D02*
D03*
X3280Y4050D02*
D03*
Y3500D02*
D03*
D75*
X7777Y-2200D02*
D03*
X7423D02*
D03*
X5873Y1670D02*
D03*
X6227D02*
D03*
X7773Y3050D02*
D03*
X8127D02*
D03*
X7773Y3410D02*
D03*
X8127D02*
D03*
X5993Y2860D02*
D03*
X6347D02*
D03*
X4477Y2880D02*
D03*
X4123D02*
D03*
X5157Y2870D02*
D03*
X4803D02*
D03*
X11577Y-3950D02*
D03*
X11223D02*
D03*
X7423Y-1850D02*
D03*
X7777D02*
D03*
X7423Y-1500D02*
D03*
X7777D02*
D03*
X5089Y480D02*
D03*
X4734D02*
D03*
X4373Y1800D02*
D03*
X4727D02*
D03*
X12973Y3979D02*
D03*
X13327D02*
D03*
D76*
X11120Y4341D02*
D03*
Y3979D02*
D03*
X7960Y2029D02*
D03*
Y2391D02*
D03*
X5513Y2488D02*
D03*
Y2850D02*
D03*
X3760Y1999D02*
D03*
Y2361D02*
D03*
X2930Y3669D02*
D03*
Y4031D02*
D03*
X12470Y4341D02*
D03*
Y3979D02*
D03*
D77*
X3500Y-1197D02*
D03*
Y-843D02*
D03*
Y7D02*
D03*
Y-347D02*
D03*
X4510Y-2887D02*
D03*
Y-2533D02*
D03*
X4230Y-2887D02*
D03*
Y-2533D02*
D03*
X7640Y2387D02*
D03*
Y2033D02*
D03*
X3449Y2351D02*
D03*
Y1996D02*
D03*
X3930Y-2887D02*
D03*
Y-2533D02*
D03*
X2900Y-3338D02*
D03*
Y-3693D02*
D03*
X7858Y-3229D02*
D03*
Y-2874D02*
D03*
X8131Y-3229D02*
D03*
Y-2874D02*
D03*
D78*
X8031Y1710D02*
D03*
X7669D02*
D03*
X4799Y2540D02*
D03*
X5161D02*
D03*
X2539Y-4515D02*
D03*
X2901D02*
D03*
X7781Y-2550D02*
D03*
X7419D02*
D03*
X15431Y3850D02*
D03*
X15069D02*
D03*
D79*
X5270Y-2466D02*
D03*
Y-2860D02*
D03*
X4810Y-2870D02*
D03*
Y-2476D02*
D03*
X5600Y-2466D02*
D03*
Y-2860D02*
D03*
X2500Y-3732D02*
D03*
Y-3338D02*
D03*
D80*
X15050Y4220D02*
D03*
X15600D02*
D03*
D81*
X5450Y-3530D02*
D03*
Y-4030D02*
D03*
X4950Y-3530D02*
D03*
Y-4030D02*
D03*
X4450Y-3530D02*
D03*
Y-4030D02*
D03*
X3950Y-3530D02*
D03*
Y-4030D02*
D03*
X3450Y-3530D02*
D03*
Y-4030D02*
D03*
D82*
X750Y-4250D02*
D03*
Y4250D02*
D03*
D83*
X17700Y-4250D02*
D03*
Y4250D02*
D03*
D84*
X14800Y-5000D02*
D03*
X14100D02*
D03*
X13400D02*
D03*
X12700D02*
D03*
X9900D02*
D03*
X10600D02*
D03*
X11300D02*
D03*
X12000D02*
D03*
X7100D02*
D03*
X7800D02*
D03*
X8500D02*
D03*
X9200D02*
D03*
X5000D02*
D03*
X5700D02*
D03*
X6400D02*
D03*
X13400Y5000D02*
D03*
X14100D02*
D03*
X14800D02*
D03*
X10600D02*
D03*
X11300D02*
D03*
X12000D02*
D03*
X12700D02*
D03*
X7800D02*
D03*
X8500D02*
D03*
X9200D02*
D03*
X9900D02*
D03*
X7100D02*
D03*
X6400D02*
D03*
X5700D02*
D03*
X5000D02*
D03*
X11860Y1230D02*
D03*
X13160D02*
D03*
X12510Y550D02*
D03*
X13160Y-70D02*
D03*
X11860D02*
D03*
M02*
