G04 Layer_Color=16711935*
%FSLAX24Y24*%
%MOIN*%
G70*
G01*
G75*
%ADD55C,0.0039*%
D55*
X6782Y-3071D02*
G03*
X6782Y-3071I-157J0D01*
G01*
X6564Y1147D02*
G03*
X6564Y1147I-197J0D01*
G01*
X3945Y3040D02*
X4575D01*
X3945Y4260D02*
X4575D01*
Y3040D02*
Y4260D01*
X3945Y3040D02*
Y4260D01*
X4434Y717D02*
X4966D01*
X4434Y1583D02*
X4966D01*
Y717D02*
Y1583D01*
X4434Y717D02*
Y1583D01*
X3391Y306D02*
X3824D01*
X3391Y582D02*
X3824D01*
Y306D02*
Y582D01*
X3391Y306D02*
Y582D01*
X6309Y-3544D02*
Y-2756D01*
X7491Y-3544D02*
Y-2756D01*
X6309D02*
X7491D01*
X6309Y-3544D02*
X7491D01*
X2462Y3633D02*
Y4067D01*
X2738Y3633D02*
Y4067D01*
X2462Y3633D02*
X2738D01*
X2462Y4067D02*
X2738D01*
X6013Y-507D02*
X7587D01*
X6013Y1501D02*
X7587D01*
Y-507D02*
Y1501D01*
X6013Y-507D02*
Y1501D01*
X3443Y992D02*
Y1208D01*
X3857Y992D02*
Y1208D01*
X3443D02*
X3857D01*
X3443Y992D02*
X3857D01*
X7393Y-2308D02*
X7807D01*
X7393Y-2092D02*
X7807D01*
Y-2308D02*
Y-2092D01*
X7393Y-2308D02*
Y-2092D01*
X11238Y3983D02*
Y4337D01*
X11002Y3983D02*
Y4337D01*
X11238D01*
X11002Y3983D02*
X11238D01*
X3433Y642D02*
Y858D01*
X3847Y642D02*
Y858D01*
X3433D02*
X3847D01*
X3433Y642D02*
X3847D01*
X3392Y-1227D02*
Y-813D01*
X3608Y-1227D02*
Y-813D01*
X3392Y-1227D02*
X3608D01*
X3392Y-813D02*
X3608D01*
X3608Y-377D02*
Y37D01*
X3392Y-377D02*
Y37D01*
X3608D01*
X3392Y-377D02*
X3608D01*
X5843Y1778D02*
X6257D01*
X5843Y1562D02*
X6257D01*
X5843D02*
Y1778D01*
X6257Y1562D02*
Y1778D01*
X7673Y1592D02*
X8027D01*
X7673Y1828D02*
X8027D01*
Y1592D02*
Y1828D01*
X7673Y1592D02*
Y1828D01*
X4402Y-2917D02*
Y-2503D01*
X4618Y-2917D02*
Y-2503D01*
X4402Y-2917D02*
X4618D01*
X4402Y-2503D02*
X4618D01*
X4122Y-2917D02*
Y-2503D01*
X4338Y-2917D02*
Y-2503D01*
X4122Y-2917D02*
X4338D01*
X4122Y-2503D02*
X4338D01*
X7743Y3158D02*
X8157D01*
X7743Y2942D02*
X8157D01*
X7743D02*
Y3158D01*
X8157Y2942D02*
Y3158D01*
X7743Y3518D02*
X8157D01*
X7743Y3302D02*
X8157D01*
X7743D02*
Y3518D01*
X8157Y3302D02*
Y3518D01*
X7748Y2003D02*
Y2417D01*
X7532Y2003D02*
Y2417D01*
X7748D01*
X7532Y2003D02*
X7748D01*
X5408Y-2909D02*
Y-2476D01*
X5132Y-2909D02*
Y-2476D01*
X5408D01*
X5132Y-2909D02*
X5408D01*
X4672Y-2919D02*
X4948D01*
X4672Y-2486D02*
X4948D01*
X4672Y-2919D02*
Y-2486D01*
X4948Y-2919D02*
Y-2486D01*
X7842Y2033D02*
Y2387D01*
X8078Y2033D02*
Y2387D01*
X7842Y2033D02*
X8078D01*
X7842Y2387D02*
X8078D01*
X5963Y2968D02*
X6377D01*
X5963Y2752D02*
X6377D01*
X5963D02*
Y2968D01*
X6377Y2752D02*
Y2968D01*
X4093Y2772D02*
X4507D01*
X4093Y2988D02*
X4507D01*
Y2772D02*
Y2988D01*
X4093Y2772D02*
Y2988D01*
X4773Y2762D02*
X5187D01*
X4773Y2978D02*
X5187D01*
Y2762D02*
Y2978D01*
X4773Y2762D02*
Y2978D01*
X3557Y1967D02*
Y2380D01*
X3340Y1967D02*
Y2380D01*
X3557D01*
X3340Y1967D02*
X3557D01*
X3822Y-2917D02*
Y-2503D01*
X4038Y-2917D02*
Y-2503D01*
X3822Y-2917D02*
X4038D01*
X3822Y-2503D02*
X4038D01*
X3008Y-3722D02*
Y-3309D01*
X2792Y-3722D02*
Y-3309D01*
X3008D01*
X2792Y-3722D02*
X3008D01*
X7750Y-3258D02*
Y-2845D01*
X7966Y-3258D02*
Y-2845D01*
X7750Y-3258D02*
X7966D01*
X7750Y-2845D02*
X7966D01*
X8023Y-3258D02*
Y-2845D01*
X8239Y-3258D02*
Y-2845D01*
X8023Y-3258D02*
X8239D01*
X8023Y-2845D02*
X8239D01*
X11193Y-4058D02*
X11607D01*
X11193Y-3842D02*
X11607D01*
Y-4058D02*
Y-3842D01*
X11193Y-4058D02*
Y-3842D01*
X7393Y-1742D02*
X7807D01*
X7393Y-1958D02*
X7807D01*
X7393D02*
Y-1742D01*
X7807Y-1958D02*
Y-1742D01*
X5738Y-2909D02*
Y-2476D01*
X5462Y-2909D02*
Y-2476D01*
X5738D01*
X5462Y-2909D02*
X5738D01*
X3639Y-3018D02*
Y-2742D01*
X3206Y-3018D02*
Y-2742D01*
Y-3018D02*
X3639D01*
X3206Y-2742D02*
X3639D01*
X2362Y-3722D02*
Y-3289D01*
X2638Y-3722D02*
Y-3289D01*
X2362Y-3722D02*
X2638D01*
X2362Y-3289D02*
X2638D01*
X2965Y-4322D02*
Y-4046D01*
X2532Y-4322D02*
Y-4046D01*
Y-4322D02*
X2965D01*
X2532Y-4046D02*
X2965D01*
X5395Y2492D02*
Y2846D01*
X5631Y2492D02*
Y2846D01*
X5395Y2492D02*
X5631D01*
X5395Y2846D02*
X5631D01*
X3642Y2003D02*
Y2357D01*
X3878Y2003D02*
Y2357D01*
X3642Y2003D02*
X3878D01*
X3642Y2357D02*
X3878D01*
X2812Y3673D02*
Y4027D01*
X3048Y3673D02*
Y4027D01*
X2812Y3673D02*
X3048D01*
X2812Y4027D02*
X3048D01*
X4803Y2658D02*
X5157D01*
X4803Y2422D02*
X5157D01*
X4803D02*
Y2658D01*
X5157Y2422D02*
Y2658D01*
X2543Y-4397D02*
X2897D01*
X2543Y-4633D02*
X2897D01*
X2543D02*
Y-4397D01*
X2897Y-4633D02*
Y-4397D01*
X7423Y-2668D02*
X7777D01*
X7423Y-2432D02*
X7777D01*
Y-2668D02*
Y-2432D01*
X7423Y-2668D02*
Y-2432D01*
X15073Y3732D02*
X15427D01*
X15073Y3968D02*
X15427D01*
Y3732D02*
Y3968D01*
X15073Y3732D02*
Y3968D01*
X3391Y1262D02*
X3824D01*
X3391Y1538D02*
X3824D01*
Y1262D02*
Y1538D01*
X3391Y1262D02*
Y1538D01*
X7393Y-1392D02*
X7807D01*
X7393Y-1608D02*
X7807D01*
X7393D02*
Y-1392D01*
X7807Y-1608D02*
Y-1392D01*
X4705Y372D02*
X5118D01*
X4705Y588D02*
X5118D01*
Y372D02*
Y588D01*
X4705Y372D02*
Y588D01*
X4343Y1908D02*
X4757D01*
X4343Y1692D02*
X4757D01*
X4343D02*
Y1908D01*
X4757Y1692D02*
Y1908D01*
X12588Y3983D02*
Y4337D01*
X12352Y3983D02*
Y4337D01*
X12588D01*
X12352Y3983D02*
X12588D01*
X12943Y4087D02*
X13357D01*
X12943Y3871D02*
X13357D01*
X12943D02*
Y4087D01*
X13357Y3871D02*
Y4087D01*
M02*
